<svg version="1.1"
    xmlns="http://www.w3.org/2000/svg"
    xml:space="preserve" viewBox="0 0 600.0 1000.0">
<path d="M348.79 893.12 c0 0 11.58 36.36 26.68 36.9 c15.1 0.54 30.03 -4.15 30.03 -4.15 c0 0 14.4 -5.3 19.7 -7.95 c5.3 -2.65 17.23 -10.61 17.34 -14.58 c0.11 -3.98 -1.45 -25.75 -1.45 -25.75 l-60.77 15.54 l-31.53 0 z " style="fill:#1c1701;"/><path d="M253.14 893.12 c0 0 -11.58 36.36 -26.68 36.9 c-15.1 0.54 -30.03 -4.15 -30.03 -4.15 c0 0 -14.4 -5.3 -19.7 -7.95 c-5.3 -2.65 -17.23 -10.61 -17.35 -14.58 c-0.11 -3.98 1.45 -25.75 1.45 -25.75 l60.77 15.54 l31.53 0 z " style="fill:#1c1701;"/><path d="M152.4 702.16 c-1.4 0.07 -2.8 0.11 -4.2 0.11 c-9.18 0 -18.51 -1.61 -27.63 -5 c-15.95 -5.94 -28.83 -16.46 -37.75 -29.52 c-8.91 -13.06 -13.84 -28.66 -13.84 -44.72 c0 -9.18 1.61 -18.51 5 -27.63 c4.66 -12.5 11.42 -22.91 19.93 -31.02 c8.51 -8.11 18.78 -13.94 30.59 -17.22 l1.01 -0.28 l2.22 -2.21 l0.15 -1.41 c1.67 -15.98 9.26 -30.2 20.55 -40.44 c1.64 -1.48 1.76 -4.01 0.28 -5.65 c-1.48 -1.64 -4.01 -1.76 -5.65 -0.28 c-12.7 11.51 -21.25 27.53 -23.13 45.53 l3.98 0.42 l-2.83 -2.83 l-0.47 0.47 l2.83 2.83 l-1.07 -3.85 c-13.03 3.61 -24.52 10.12 -33.97 19.14 c-9.46 9.02 -16.87 20.51 -21.9 34.02 c-3.73 10.02 -5.51 20.31 -5.51 30.43 c0 17.7 5.42 34.86 15.23 49.23 c9.8 14.37 24.02 25.98 41.56 32.51 c10.02 3.73 20.31 5.51 30.43 5.51 c1.55 0 3.09 -0.04 4.63 -0.12 c2.21 -0.12 3.9 -2 3.78 -4.21 c-0.12 -2.21 -2 -3.9 -4.21 -3.78 " style="fill:#a3d6e5;"/><path d="M318.34 693.69 c5.01 1.9 10.37 3.08 15.94 3.42 c2.21 0.14 4.1 -1.54 4.24 -3.75 c0.13 -2.2 -1.54 -4.1 -3.75 -4.24 c-4.77 -0.29 -9.33 -1.3 -13.6 -2.92 c-2.06 -0.78 -4.38 0.26 -5.16 2.32 c-0.78 2.07 0.26 4.38 2.32 5.16 " style="fill:#a3d6e5;"/><path d="M492.22 536.49 c0.19 -2.3 0.29 -4.62 0.29 -6.97 c0 -13.76 -3.34 -26.77 -9.26 -38.21 c-5.92 -11.45 -14.41 -21.34 -24.71 -28.92 c-1.78 -1.31 -4.28 -0.93 -5.59 0.85 c-1.31 1.78 -0.93 4.28 0.85 5.59 c9.32 6.85 17 15.81 22.35 26.15 c5.35 10.34 8.37 22.07 8.37 34.54 c0 2.13 -0.09 4.23 -0.26 6.31 c-0.18 2.2 1.45 4.13 3.66 4.32 c2.2 0.18 4.13 -1.45 4.32 -3.65 " style="fill:#a3d6e5;"/><path d="M448.75 714.03 c23.3 -4.77 43.71 -17.46 58.29 -35.13 c14.58 -17.66 23.35 -40.34 23.35 -65.03 c0 -32.9 -15.55 -62.19 -39.69 -80.88 c-1.75 -1.35 -4.26 -1.03 -5.61 0.71 c-1.35 1.75 -1.03 4.26 0.71 5.61 c22.27 17.25 36.59 44.21 36.59 74.55 c0 22.78 -8.07 43.64 -21.52 59.94 c-13.45 16.29 -32.26 27.99 -53.72 32.38 c-2.16 0.44 -3.56 2.56 -3.12 4.72 c0.44 2.16 2.56 3.56 4.72 3.12 " style="fill:#a3d6e5;"/><path d="M267.75 734.53 c13.12 -0.75 25.18 -5.58 34.89 -13.21 c9.71 -7.64 17.1 -18.1 20.93 -30.15 c0.67 -2.11 -0.5 -4.36 -2.6 -5.02 c-2.11 -0.67 -4.35 0.5 -5.02 2.6 c-3.33 10.5 -9.78 19.62 -18.25 26.29 c-8.47 6.66 -18.95 10.86 -30.4 11.51 c-2.21 0.13 -3.89 2.02 -3.76 4.22 c0.13 2.21 2.02 3.89 4.22 3.76 " style="fill:#a3d6e5;"/><path d="M272.3 639.69 l-0.57 -1.27 l0.57 1.27 l-0.57 -1.27 l0.57 1.27 c0.09 -0.05 12.55 -5.53 29.14 -5.51 c8.43 0 17.9 1.39 27.48 5.53 c2.03 0.88 4.38 -0.06 5.26 -2.08 c0.88 -2.03 -0.06 -4.38 -2.08 -5.26 c-10.75 -4.65 -21.35 -6.19 -30.66 -6.19 c-18.61 0.02 -32.1 6.09 -32.41 6.21 c-2.01 0.9 -2.92 3.27 -2.01 5.29 c0.91 2.01 3.27 2.91 5.29 2.01 " style="fill:#a3d6e5;"/><path d="M148.46 523.5 l1.14 21.72 l-4.14 -6.98 c0 0 -1.66 -3.03 -0.97 -6.52 c0.97 -4.88 3.96 -8.22 3.96 -8.22 " style="fill:#efebd5;"/><path d="M453.01 523.5 l-1.14 21.72 l4.14 -6.98 c0 0 1.66 -3.03 0.97 -6.52 c-0.97 -4.88 -3.96 -8.22 -3.96 -8.22 " style="fill:#efebd5;"/><path d="M406.93 183.32 c0 0 -4.5 -35.51 -25 -39.4 l-43.97 -12.16 l-5.22 9.08 l-3.81 -11.02 l-4.35 -11.19 l-7.5 9.24 l-3 -7.3 l-13.78 6.81 l-12.72 -11.67 l-7 13.62 l-1.17 8.43 l-8.33 -7.94 l-18.87 -11.19 l9.83 13.13 l-43.97 12.16 c-20.5 3.89 -25 39.4 -25 39.4 c0 0 -1.83 75.02 6 98.39 c6.71 20.01 22.54 46.93 49.48 62.78 c22.92 13.48 38.36 15.6 46.05 15.53 c3.78 -0.03 11 0 11 0 c7.81 -0.01 24.14 -1.26 45.65 -15.53 c26.05 -17.27 42.78 -42.77 49.48 -62.78 c7.83 -23.37 6 -98.39 6 -98.39 c0 0 -4.5 -35.51 -25 -39.4 " style="fill:#efebd5;"/><path d="M352.71 288.32 c0 0 -13.26 32.4 -51.74 35.26 l-1.35 0 c-38.48 -2.86 -51.74 -35.26 -51.74 -35.26 l104.83 0 z " style="fill:#ffffff;"/><path d="M313.38 231.56 l2.13 7.86 c2.12 7.86 9 16.33 9 16.33 c9.67 5 39 1.33 39 1.33 c29.33 -2.33 32.03 -8.39 32.03 -8.39 c6.63 -6.22 6.34 -27.4 5.97 -23.14 c0 0 4.33 -16.8 -21 -16.64 c0 0 -47.33 -2.17 -66.33 9.5 c0 0 -3.36 3.52 0 16.67 M286.41 235.08 c3.36 -13.15 0 -16.67 0 -16.67 c-19 -11.67 -66.33 -9.5 -66.33 -9.5 c-25.33 -0.16 -21 16.64 -21 16.64 c-0.38 -4.27 -0.67 16.92 5.96 23.14 c0 0 2.7 6.06 32.04 8.39 c0 0 29.33 3.67 39 -1.33 c0 0 6.88 -8.48 9 -16.33 l2.12 -7.86 M299.37 224.26 c-2.88 0.65 -3.97 3.48 -3.97 3.48 c-8 26.67 -17.33 32.67 -17.33 32.67 c-26 5 -64 -2.5 -64 -2.5 c-13.5 -1.5 -16.5 -10 -16.5 -10 c-3.5 -4 -7 -24 -8 -27 c-1 -3 -2.53 -3.12 -2.53 -3.12 l-1.47 -10.38 c60 -9.5 84 0 84 0 c0 0 16 5.5 22 8 c6 2.5 7.73 2.23 7.73 2.23 l1.98 0 c0 0 1.73 0.27 7.73 -2.23 c6 -2.5 22 -8 22 -8 c0 0 24 -9.5 84 0 l-1.47 10.38 c0 0 -1.53 0.12 -2.53 3.12 c-1 3 -4.5 23 -8 27 c0 0 -3 8.5 -16.5 10 c0 0 -38 7.5 -64 2.5 c0 0 -9.33 -6 -17.33 -32.67 c0 0 -1.09 -2.83 -3.97 -3.48 l-1.83 0 z " style="fill:#000000;"/><path d="M270.66 232.66 c0 3.73 -3.02 6.75 -6.75 6.75 c-3.73 0 -6.75 -3.02 -6.75 -6.75 c0 -3.73 3.02 -6.75 6.75 -6.75 c3.73 0 6.75 3.02 6.75 6.75 " style="fill:#677884;"/><path d="M343.42 232.66 c0 3.73 -3.02 6.75 -6.75 6.75 c-3.73 0 -6.75 -3.02 -6.75 -6.75 c0 -3.73 3.02 -6.75 6.75 -6.75 c3.73 0 6.75 3.02 6.75 6.75 " style="fill:#677884;"/><path d="M406.93 183.32 c0 0 -4.5 -35.51 -25.51 -39.54 l-43.96 -12.16 l-4.71 9.22 l-3.81 -11.02 l-4.35 -11.19 l-7.5 9.24 l-3 -7.3 l-13.78 6.81 l-12.72 -11.67 l-7 13.62 l-1.17 8.43 l-8.33 -7.94 l-18.87 -11.19 l9.83 13.13 l-43.97 12.16 c-20.5 3.89 -25 39.4 -25 39.4 l-0.18 23 l-3.05 -36.39 c0 0 3.22 -46.5 15.72 -53 c12.5 -6.5 9.83 -25.83 9.83 -25.83 l16.67 4.67 l5.5 -5.33 l10.97 -1 l6.75 -8.33 l18.28 0.83 l24.79 -3.29 l40.17 3.29 l6.75 -6.83 l0 7.33 l9.45 2.67 l16 7.33 l9.33 7.33 l6 8.17 l11.33 9.83 l9.33 20 l3.41 24 l-3.22 44.46 l0 -22.89 z " style="fill:#665d1f;"/><path d="M360.84 281.72 c4.3 1.82 2.37 13.19 2.37 13.19 l-2.37 -13.19 z " style="fill:#e5dfc3;"/><path d="M239.74 281.72 c-4.29 1.82 -2.37 13.19 -2.37 13.19 l2.37 -13.19 z " style="fill:#e5dfc3;"/><path d="M275.09 189.86 c0 0 -12.05 -8.28 -27.21 0 l27.21 0 z " style="fill:#665d1f;"/><path d="M350.28 189.86 c-15.16 -8.28 -27.21 0 -27.21 0 l27.21 0 z " style="fill:#665d1f;"/><path d="M444.78 592.05 c2.76 0 5 -2.24 5 -5 l10 -190.4 c0 -2.76 -2.24 -5 -5 -5 l-307.98 0 c-2.76 0 -5 2.24 -5 5 l10 190.4 c0 2.76 2.24 5 5 5 l287.98 0 z " style="fill:#c6c6c6;"/><path d="M304.67 384.38 c27.18 -4 33.01 -15.95 33.01 -15.95 l-6.75 -13.26 l-6.68 2.19 l-7.25 1.71 l-5.86 0.8 l-7.64 0.15 l-2.22 0 l-1 0 l-2.22 0 l-7.64 -0.15 l-5.86 -0.8 l-7.25 -1.71 l-6.68 -2.19 l-6.75 13.26 c0 0 5.83 11.95 33.01 15.95 l7.75 0 z " style="fill:#eae4cc;"/><path d="M337.67 368.43 c0 0 -5.83 11.95 -33.01 15.95 l-7.75 0 c-27.18 -4 -33.01 -15.95 -33.01 -15.95 l-26.97 7.22 c0 0 -34.53 6.55 -51.37 16 l230.43 0 c-16.83 -9.45 -51.37 -16 -51.37 -16 l-26.97 -7.22 " style="fill:#fff800;"/><path d="M295.04 483.55 l-1.9 12.08 l12.97 0 l1.79 -12.08 l-12.86 0 z M323.22 483.55 l-1.79 12.08 l7.71 0 l0 13.64 l-9.95 0 l-3.35 21.25 l-15.32 0 l3.47 -21.25 l-12.97 0 l-3.35 21.25 l-15.32 0 l3.36 -21.25 l-7.72 0 l0 -13.64 l9.95 0 l1.79 -12.08 l-7.83 0 l0 -13.53 l9.95 0 l3.13 -19.79 l15.32 0 l-3.13 19.79 l12.97 0 l3.13 -19.79 l15.21 0 l-3.02 19.79 l7.71 0 l0 13.53 l-9.95 0 z " style="fill:#ffffff;"/><path d="M330.5 633.04 l4.32 64.45 l-4.32 120.49 l4.32 61.5 l9.28 15 l20.28 0 l15 0 l70.8 -18 c0 0 -0.3 -114.5 -0.01 -141.49 c0.3 -27 -13.49 -137.47 -13.49 -137.47 c-7.37 -23.72 -18.13 -33.47 -36.13 -33.47 c0 0 -47.28 0 -56.56 28 l-86.84 0 c-9.28 -28 -56.56 -28 -56.56 -28 c-18 0 -28.76 9.75 -36.13 33.47 c0 0 -13.78 110.47 -13.49 137.47 c0.3 27 -0.01 141.49 -0.01 141.49 l70.8 18 l15 0 l28.06 0 l1.51 -15 l4.32 -61.5 l-4.32 -120.49 l4.32 -64.45 c0 0 29.34 -13.19 59.84 0 " style="fill:#03101e;"/>
</svg>
