<svg version="1.1"
    xmlns="http://www.w3.org/2000/svg"
    xml:space="preserve" viewBox="0 0 394.086 700.043">
<path d="M244.55 390.47 l8.53 -6.52 l-0.86 43.52 l0.86 7.5 l0 23 l-0.75 22.84 l1.17 5.67 l1.56 4.32 l-1.51 3.7 l-1.99 8.3 l-0.67 3.33 l-1.67 0 l-0.5 -2.83 l1.08 -8.17 l-1.42 -4.33 c0 0 -1.28 -0.35 -1.44 -0.85 c-0.17 -0.5 -0.72 -2.56 -0.72 -2.56 l-1.42 -7.59 l-0.24 -44.16 l0 -45.17 z " style="fill:#efebd5;"/><path d="M217.23 333.86 l0 -17.19 l-5.91 1.4 l-4.78 0.65 l-6.23 0.12 l-1.81 0 l-0.82 0 l-1.81 0 l-6.23 -0.12 l-4.78 -0.65 l-5.91 -1.4 l0 17.19 l0 0.82 c3.16 1.88 8.14 3.72 15.99 4.87 l6.33 0 c7.85 -1.15 12.83 -2.99 15.98 -4.87 l0 -0.82 z " style="fill:#e2daba;"/><path d="M304.72 142.63 c0 0 -4.5 -35.51 -25 -39.4 l-43.97 -12.16 l-5.22 9.08 l-3.81 -11.02 l-4.35 -11.19 l-7.5 9.24 l-3 -7.3 l-13.78 6.81 l-12.72 -11.67 l-7 13.62 l-1.17 8.43 l-8.33 -7.94 l-18.87 -11.19 l9.83 13.13 l-43.97 12.16 c-20.5 3.89 -25 39.4 -25 39.4 c0 0 -1.83 75.02 6 98.39 c6.71 20.01 22.54 46.93 49.48 62.78 c22.92 13.48 38.36 15.6 46.05 15.53 c3.78 -0.03 11 0 11 0 c7.81 -0.01 24.14 -1.26 45.65 -15.53 c26.05 -17.27 42.78 -42.77 49.48 -62.78 c7.83 -23.37 6 -98.39 6 -98.39 c0 0 -4.5 -35.51 -25 -39.4 " style="fill:#efebd5;"/><path d="M250.11 247.31 c-0.78 0.9 -14.23 16.06 -51.37 17.45 l0.02 0.5 l0 -0.5 l-1.35 0 l0 0.5 l0.02 -0.5 c-19.17 -0.71 -32.03 -5.1 -40.09 -9.3 c-4.03 -2.1 -6.86 -4.15 -8.68 -5.66 c-0.91 -0.76 -1.56 -1.39 -1.99 -1.82 c-0.21 -0.22 -0.37 -0.39 -0.47 -0.5 l-0.14 -0.17 l-0.77 0.63 c0.07 0.09 13.49 16.38 52.11 17.81 l1.38 0 c38.63 -1.43 52.05 -17.72 52.12 -17.81 l-0.77 -0.63 z " style="fill:#000000;"/><path d="M211.17 190.87 l2.13 7.86 c2.12 7.86 9 16.33 9 16.33 c9.67 5 39 1.33 39 1.33 c29.33 -2.33 32.03 -8.39 32.03 -8.39 c6.63 -6.22 6.34 -27.4 5.96 -23.14 c0 0 4.33 -16.8 -21 -16.64 c0 0 -47.33 -2.17 -66.33 9.5 c0 0 -3.36 3.52 0 16.67 M184.19 194.39 c3.36 -13.15 0 -16.67 0 -16.67 c-19 -11.67 -66.33 -9.5 -66.33 -9.5 c-25.33 -0.16 -21 16.64 -21 16.64 c-0.38 -4.27 -0.67 16.92 5.96 23.14 c0 0 2.7 6.06 32.04 8.39 c0 0 29.33 3.67 39 -1.33 c0 0 6.88 -8.48 9 -16.33 l2.12 -7.86 M197.16 183.57 c-2.88 0.65 -3.97 3.48 -3.97 3.48 c-8 26.67 -17.33 32.67 -17.33 32.67 c-26 5 -64 -2.5 -64 -2.5 c-13.5 -1.5 -16.5 -10 -16.5 -10 c-3.5 -4 -7 -24 -8 -27 c-1 -3 -2.53 -3.12 -2.53 -3.12 l-1.47 -10.38 c60 -9.5 84 0 84 0 c0 0 16 5.5 22 8 c6 2.5 7.73 2.23 7.73 2.23 l1.98 0 c0 0 1.73 0.27 7.73 -2.23 c6 -2.5 22 -8 22 -8 c0 0 24 -9.5 84 0 l-1.47 10.38 c0 0 -1.53 0.12 -2.53 3.12 c-1 3 -4.5 23 -8 27 c0 0 -3 8.5 -16.5 10 c0 0 -38 7.5 -64 2.5 c0 0 -9.33 -6 -17.33 -32.67 c0 0 -1.09 -2.83 -3.97 -3.48 l-1.83 0 z " style="fill:#000000;"/><path d="M168.45 191.97 c0 3.73 -3.02 6.75 -6.75 6.75 c-3.73 0 -6.75 -3.02 -6.75 -6.75 c0 -3.73 3.02 -6.75 6.75 -6.75 c3.73 0 6.75 3.02 6.75 6.75 " style="fill:#677884;"/><path d="M241.21 191.97 c0 3.73 -3.02 6.75 -6.75 6.75 c-3.73 0 -6.75 -3.02 -6.75 -6.75 c0 -3.73 3.02 -6.75 6.75 -6.75 c3.73 0 6.75 3.02 6.75 6.75 " style="fill:#677884;"/><path d="M304.72 142.63 c0 0 -4.5 -35.51 -25.51 -39.54 l-43.96 -12.16 l-4.71 9.22 l-3.81 -11.02 l-4.35 -11.19 l-7.5 9.24 l-3 -7.3 l-13.78 6.81 l-12.72 -11.67 l-7 13.62 l-1.17 8.43 l-8.33 -7.94 l-18.87 -11.19 l9.83 13.13 l-43.97 12.16 c-20.5 3.89 -25 39.4 -25 39.4 l-0.18 23 l-3.05 -36.39 c0 0 3.22 -46.5 15.72 -53 c12.5 -6.5 9.83 -25.83 9.83 -25.83 l16.67 4.67 l5.5 -5.33 l10.97 -1 l6.75 -8.33 l18.28 0.83 l24.79 -3.29 l40.17 3.29 l6.75 -6.83 l0 7.33 l9.45 2.67 l16 7.33 l9.33 7.33 l6 8.17 l11.33 9.83 l9.33 20 l3.41 24 l-3.22 44.46 l0 -22.89 z " style="fill:#665d1f;"/><path d="M258.63 241.03 c4.3 1.82 2.37 13.19 2.37 13.19 l-2.37 -13.19 z " style="fill:#e2daba;"/><path d="M137.53 241.03 c-4.29 1.82 -2.37 13.19 -2.37 13.19 l2.37 -13.19 z " style="fill:#e2daba;"/><path d="M172.88 149.17 c0 0 -12.05 -8.28 -27.21 0 l27.21 0 z " style="fill:#665d1f;"/><path d="M248.07 149.17 c-15.16 -8.28 -27.21 0 -27.21 0 l27.21 0 z " style="fill:#665d1f;"/><path d="M159.27 640.78 l-4.32 -160.98 c0 0 51.36 11.59 86.84 2.87 l-5.11 152.51 l0.98 11.79 l-29.01 5.86 l-7.53 0 l-1.65 -1.73 c0 0 0.52 -6.26 0.78 -9.39 c0.26 -3.13 1.04 -13.57 1.04 -13.57 l-0.52 -16.43 l0.26 -32.61 l-1.01 -63.31 l-1.65 41.14 c0 0 -1.25 38.61 -1.77 43.04 c-0.52 4.44 1.48 30 1.48 30 l0.59 8.03 l-2.85 14.83 c-26.22 -1.12 -40.87 -6.05 -40.87 -6.05 l1.74 -2.99 l1.56 -1.82 l1.02 -1.19 z " style="fill:#050a19;"/><path d="M258.23 382.61 c-4.46 -19.83 -7.57 -27.89 -16.44 -38.81 c-5.22 -6.42 -24.56 -9.13 -24.56 -9.13 c-3.23 1.81 -8.13 3.6 -15.98 4.75 l-6.33 0 c-7.85 -1.16 -12.75 -2.94 -15.9 -4.82 c-0.09 0.07 -21.54 7.93 -27.4 13.78 c-7.07 7.08 -12.79 33.41 -12.79 33.41 l11.33 8.67 l-0.87 24.93 l0 49.88 l0.63 14.52 c0 0 63.09 16.41 100.57 0.98 l-3.01 -56.33 l-3.04 -32.98 l13.78 -8.86 z " style="fill:#183806;"/><path d="M148.82 654.93 c0.83 -0.42 3.2 -4.87 3.2 -4.87 l2.93 -2.23 l4.16 -2.64 l6.67 0 l4.59 0 l5.98 1.39 l5.42 2.5 l3.75 2.36 l1.09 0.8 l6.54 0.45 l0 2.23 l-0.96 0.84 l-5.56 0.83 l-28.22 1.25 l-8.48 -1.39 l-1.11 -0.97 l0 -0.56 z " style="fill:#1e1b0c;"/><path d="M248.9 654.93 c-0.83 -0.42 -3.2 -4.87 -3.2 -4.87 l-2.93 -2.23 l-4.16 -2.64 l-6.67 0 l-4.59 0 l-5.98 1.39 l-5.42 2.5 l-3.75 2.36 l-1.09 0.8 l-6.54 0.45 l0 2.23 l0.96 0.84 l5.56 0.83 l28.22 1.25 l8.48 -1.39 l1.11 -0.97 l0 -0.56 z " style="fill:#1e1b0c;"/><path d="M150.17 390.47 l-8.53 -6.52 l0.86 43.52 l-0.86 7.5 l0 23 l0.75 22.84 l-1.17 5.67 l-1.56 4.32 l1.51 3.7 l1.99 8.3 l0.67 3.33 l1.67 0 l0.5 -2.83 l-1.08 -8.17 l1.42 -4.33 c0 0 1.28 -0.35 1.44 -0.85 c0.17 -0.5 0.72 -2.56 0.72 -2.56 l1.42 -7.59 l0.24 -44.16 l0 -45.17 z " style="fill:#efebd5;"/>
</svg>
