<svg version="1.1"
    xmlns="http://www.w3.org/2000/svg"
    xml:space="preserve" viewBox="0 0 400.0 600.0">
<path d="M306.93 143.36 c0 0 -4.5 -35.51 -25 -39.4 l-43.97 -12.16 l-5.22 9.08 l-3.81 -11.02 l-4.35 -11.19 l-7.5 9.24 l-3 -7.3 l-13.78 6.81 l-12.72 -11.67 l-7 13.62 l-1.17 8.43 l-8.33 -7.94 l-18.87 -11.19 l9.83 13.13 l-43.97 12.16 c-20.5 3.89 -25 39.4 -25 39.4 c0 0 -1.83 75.02 6 98.39 c6.71 20.01 22.54 46.93 49.48 62.78 c22.92 13.48 38.36 15.6 46.05 15.53 c3.78 -0.03 11 0 11 0 c7.81 -0.01 24.14 -1.26 45.65 -15.53 c26.05 -17.27 42.78 -42.77 49.48 -62.78 c7.83 -23.37 6 -98.39 6 -98.39 c0 0 -4.5 -35.51 -25 -39.4 " style="fill:#efebd5;"/><path d="M252.71 248.35 c0 0 -13.26 32.4 -51.74 35.26 l-1.35 0 c-38.48 -2.86 -51.74 -35.26 -51.74 -35.26 l104.83 0 z " style="fill:#ffffff;"/><path d="M213.38 191.59 l2.13 7.86 c2.12 7.86 9 16.33 9 16.33 c9.67 5 39 1.33 39 1.33 c29.33 -2.33 32.03 -8.39 32.03 -8.39 c6.63 -6.22 6.34 -27.4 5.96 -23.14 c0 0 4.33 -16.8 -21 -16.64 c0 0 -47.33 -2.17 -66.33 9.5 c0 0 -3.36 3.52 0 16.67 M186.41 195.11 c3.36 -13.15 0 -16.67 0 -16.67 c-19 -11.67 -66.33 -9.5 -66.33 -9.5 c-25.33 -0.16 -21 16.64 -21 16.64 c-0.38 -4.27 -0.67 16.92 5.96 23.14 c0 0 2.7 6.06 32.04 8.39 c0 0 29.33 3.67 39 -1.33 c0 0 6.88 -8.48 9 -16.33 l2.12 -7.86 M199.37 184.3 c-2.88 0.65 -3.97 3.48 -3.97 3.48 c-8 26.67 -17.33 32.67 -17.33 32.67 c-26 5 -64 -2.5 -64 -2.5 c-13.5 -1.5 -16.5 -10 -16.5 -10 c-3.5 -4 -7 -24 -8 -27 c-1 -3 -2.53 -3.12 -2.53 -3.12 l-1.47 -10.38 c60 -9.5 84 0 84 0 c0 0 16 5.5 22 8 c6 2.5 7.73 2.23 7.73 2.23 l1.98 0 c0 0 1.73 0.27 7.73 -2.23 c6 -2.5 22 -8 22 -8 c0 0 24 -9.5 84 0 l-1.47 10.38 c0 0 -1.53 0.12 -2.53 3.12 c-1 3 -4.5 23 -8 27 c0 0 -3 8.5 -16.5 10 c0 0 -38 7.5 -64 2.5 c0 0 -9.33 -6 -17.33 -32.67 c0 0 -1.09 -2.83 -3.97 -3.48 l-1.83 0 z " style="fill:#000000;"/><path d="M170.66 192.69 c0 3.73 -3.02 6.75 -6.75 6.75 c-3.73 0 -6.75 -3.02 -6.75 -6.75 c0 -3.73 3.02 -6.75 6.75 -6.75 c3.73 0 6.75 3.02 6.75 6.75 " style="fill:#677884;"/><path d="M243.42 192.69 c0 3.73 -3.02 6.75 -6.75 6.75 c-3.73 0 -6.75 -3.02 -6.75 -6.75 c0 -3.73 3.02 -6.75 6.75 -6.75 c3.73 0 6.75 3.02 6.75 6.75 " style="fill:#677884;"/><path d="M306.93 143.36 c0 0 -4.5 -35.51 -25.51 -39.54 l-43.96 -12.16 l-4.71 9.22 l-3.81 -11.02 l-4.35 -11.19 l-7.5 9.24 l-3 -7.3 l-13.78 6.81 l-12.72 -11.67 l-7 13.62 l-1.17 8.43 l-8.33 -7.94 l-18.87 -11.19 l9.83 13.13 l-43.97 12.16 c-20.5 3.89 -25 39.4 -25 39.4 l-0.18 23 l-3.05 -36.39 c0 0 3.22 -46.5 15.72 -53 c12.5 -6.5 9.83 -25.83 9.83 -25.83 l16.67 4.67 l5.5 -5.33 l10.97 -1 l6.75 -8.33 l18.28 0.83 l24.82 0 l40.15 0 l6.75 -6.83 l0 7.33 l9.45 2.67 l16 7.33 l9.33 7.33 l6 8.17 l11.33 9.83 l9.33 20 l3.41 24 l-3.22 44.46 l0 -22.89 z " style="fill:#665d1f;"/><path d="M260.84 241.75 c4.3 1.82 2.37 13.19 2.37 13.19 l-2.37 -13.19 z " style="fill:#e5dfc3;"/><path d="M139.74 241.75 c-4.29 1.82 -2.37 13.19 -2.37 13.19 l2.37 -13.19 z " style="fill:#e5dfc3;"/><path d="M175.09 149.89 c0 0 -12.05 -8.28 -27.21 0 l27.21 0 z " style="fill:#665d1f;"/><path d="M250.28 149.89 c-15.16 -8.28 -27.21 0 -27.21 0 l27.21 0 z " style="fill:#665d1f;"/><path d="M344.78 552.08 c2.76 0 5 -2.24 5 -5 l10 -190.4 c0 -2.76 -2.24 -5 -5 -5 l-307.98 0 c-2.76 0 -5 2.24 -5 5 l10 190.4 c0 2.76 2.24 5 5 5 l287.98 0 z " style="fill:#c6c6c6;"/><path d="M204.67 344.42 c27.18 -4 33.01 -15.95 33.01 -15.95 l-6.75 -13.26 l-6.68 2.19 l-7.25 1.71 l-5.86 0.79 l-7.64 0.15 l-2.22 0 l-1 0 l-2.22 0 l-7.64 -0.15 l-5.86 -0.79 l-7.25 -1.71 l-6.68 -2.19 l-6.75 13.26 c0 0 5.83 11.95 33.01 15.95 l7.75 0 z " style="fill:#eae4cc;"/><path d="M237.67 328.46 c0 0 -5.83 11.95 -33.01 15.95 l-7.75 0 c-27.18 -4 -33.01 -15.95 -33.01 -15.95 l-26.97 7.22 c0 0 -34.53 6.55 -51.37 16 l230.44 0 c-16.83 -9.45 -51.37 -16 -51.37 -16 l-26.97 -7.22 " style="fill:#002d4f;"/><path d="M195.04 443.58 l-1.9 12.08 l12.97 0 l1.79 -12.08 l-12.86 0 z M223.22 443.58 l-1.79 12.08 l7.71 0 l0 13.64 l-9.95 0 l-3.35 21.25 l-15.32 0 l3.47 -21.25 l-12.97 0 l-3.35 21.25 l-15.32 0 l3.35 -21.25 l-7.72 0 l0 -13.64 l9.95 0 l1.79 -12.08 l-7.83 0 l0 -13.53 l9.95 0 l3.13 -19.79 l15.32 0 l-3.13 19.79 l12.97 0 l3.13 -19.79 l15.21 0 l-3.02 19.79 l7.72 0 l0 13.53 l-9.95 0 z " style="fill:#ffffff;"/>
</svg>
