<svg version="1.1"
    xmlns="http://www.w3.org/2000/svg"
    xml:space="preserve" viewBox="0 0 400.0 600.0">
<path d="M262.93 143.36 c0 0 -4.5 -35.51 -25 -39.4 l-43.97 -12.16 l-5.22 9.08 l-3.81 -11.02 l-4.35 -11.19 l-7.5 9.24 l-3 -7.3 l-13.78 6.81 l-12.72 -11.67 l-7 13.62 l-1.17 8.43 l-8.33 -7.94 l-18.87 -11.19 l9.83 13.13 l-43.97 12.16 c-20.5 3.89 -25 39.4 -25 39.4 c0 0 -1.83 75.02 6 98.39 c6.71 20.01 22.54 46.93 49.48 62.78 c22.92 13.48 38.36 15.6 46.05 15.53 c3.78 -0.03 11 0 11 0 c7.81 -0.01 24.14 -1.26 45.65 -15.53 c26.05 -17.27 42.78 -42.77 49.48 -62.78 c7.83 -23.37 6 -98.39 6 -98.39 c0 0 -4.5 -35.51 -25 -39.4 " style="fill:#efebd5;"/><path d="M169.38 191.59 l2.13 7.86 c2.12 7.86 9 16.33 9 16.33 c9.67 5 39 1.33 39 1.33 c29.33 -2.33 32.03 -8.39 32.03 -8.39 c6.63 -6.22 6.34 -27.4 5.96 -23.14 c0 0 4.33 -16.8 -21 -16.64 c0 0 -47.33 -2.17 -66.33 9.5 c0 0 -3.36 3.52 0 16.67 M142.41 195.11 c3.36 -13.15 0 -16.67 0 -16.67 c-19 -11.67 -66.33 -9.5 -66.33 -9.5 c-25.33 -0.16 -21 16.64 -21 16.64 c-0.38 -4.27 -0.67 16.92 5.96 23.14 c0 0 2.7 6.06 32.04 8.39 c0 0 29.33 3.67 39 -1.33 c0 0 6.88 -8.48 9 -16.33 l2.12 -7.86 M155.37 184.3 c-2.88 0.65 -3.97 3.48 -3.97 3.48 c-8 26.67 -17.33 32.67 -17.33 32.67 c-26 5 -64 -2.5 -64 -2.5 c-13.5 -1.5 -16.5 -10 -16.5 -10 c-3.5 -4 -7 -24 -8 -27 c-1 -3 -2.53 -3.12 -2.53 -3.12 l-1.47 -10.38 c60 -9.5 84 0 84 0 c0 0 16 5.5 22 8 c6 2.5 7.73 2.23 7.73 2.23 l1.98 0 c0 0 1.73 0.27 7.73 -2.23 c6 -2.5 22 -8 22 -8 c0 0 24 -9.5 84 0 l-1.47 10.38 c0 0 -1.53 0.12 -2.53 3.12 c-1 3 -4.5 23 -8 27 c0 0 -3 8.5 -16.5 10 c0 0 -38 7.5 -64 2.5 c0 0 -9.33 -6 -17.33 -32.67 c0 0 -1.09 -2.83 -3.97 -3.48 l-1.83 0 z " style="fill:#000000;"/><path d="M126.66 192.69 c0 3.73 -3.02 6.75 -6.75 6.75 c-3.73 0 -6.75 -3.02 -6.75 -6.75 c0 -3.73 3.02 -6.75 6.75 -6.75 c3.73 0 6.75 3.02 6.75 6.75 " style="fill:#677884;"/><path d="M199.42 192.69 c0 3.73 -3.02 6.75 -6.75 6.75 c-3.73 0 -6.75 -3.02 -6.75 -6.75 c0 -3.73 3.02 -6.75 6.75 -6.75 c3.73 0 6.75 3.02 6.75 6.75 " style="fill:#677884;"/><path d="M262.93 143.36 c0 0 -4.5 -35.51 -25.51 -39.54 l-43.96 -12.16 l-4.71 9.22 l-3.81 -11.02 l-4.35 -11.19 l-7.5 9.24 l-3 -7.3 l-13.78 6.81 l-12.72 -11.67 l-7 13.62 l-1.17 8.43 l-8.33 -7.94 l-18.87 -11.19 l9.83 13.13 l-43.97 12.16 c-20.5 3.89 -25 39.4 -25 39.4 l-0.18 23 l-3.05 -36.39 c0 0 3.22 -46.5 15.72 -53 c12.5 -6.5 9.83 -25.83 9.83 -25.83 l16.67 4.67 l5.5 -5.33 l10.97 -1 l6.75 -8.33 l18.28 0.83 l24.79 -3.29 l40.17 3.29 l6.75 -6.83 l0 7.33 l9.45 2.67 l16 7.33 l9.33 7.33 l6 8.17 l11.33 9.83 l9.33 20 l3.41 24 l-3.22 44.46 l0 -22.89 z " style="fill:#665d1f;"/><path d="M131.09 149.89 c0 0 -12.05 -8.28 -27.21 0 l27.21 0 z " style="fill:#665d1f;"/><path d="M206.28 149.89 c-15.16 -8.28 -27.21 0 -27.21 0 l27.21 0 z " style="fill:#665d1f;"/><path d="M193.67 328.46 l-6.75 -13.26 l-6.68 2.19 l-7.25 1.71 l-5.86 0.8 l-7.64 0.15 l-2.22 0 l-1 0 l-2.22 0 l-7.64 -0.15 l-5.86 -0.8 l-7.24 -1.71 l-6.68 -2.19 l-6.75 13.26 l69.34 12.04 c0 0 8.59 -1.33 7.26 -4 c-1.33 -2.67 -2.83 -8.04 -2.83 -8.04 " style="fill:#eae4cc;"/><path d="M179.22 279.49 c0.05 -0.01 4.92 -0.76 10.01 -2.94 c2.54 -1.09 5.15 -2.54 7.23 -4.48 c2.08 -1.94 3.65 -4.42 3.95 -7.46 l-1.99 -0.19 c-0.24 2.46 -1.49 4.47 -3.32 6.19 c-2.75 2.57 -6.82 4.34 -10.19 5.42 c-1.69 0.54 -3.19 0.92 -4.28 1.16 c-0.54 0.12 -0.98 0.2 -1.28 0.26 c-0.15 0.03 -0.26 0.05 -0.34 0.06 l0.2 2 z " style="fill:#000000;"/><path d="M150.29 411.5 c0 0 101.21 -10 122.21 -12 c21 -2 56.67 -0.33 56.67 -0.33 l12.67 6.09 l0.92 9.53 l1.77 8.3 l0.98 16.41 l0 8 l6 0 l1.89 -13.16 l-0.33 -30.6 l-0.37 -17.3 l-10.67 -15.82 l-20.61 0 l-23.66 -1.15 l-31.6 -2.3 l-52.32 -5.58 l-54.37 -11.98 l-57.96 -5.42 l-28.33 7.49 l-18.67 19.82 l0 11 l20 7 l24 15.76 c0 0 17.11 5.78 51.79 6.24 " style="fill:#efebd5;"/><path d="M119.91 328.46 l24.55 4.26 l18.79 3.26 l15.81 2.75 l10.18 1.77 l3.43 -0.78 l3.83 -3.22 l17.33 25.09 l-54.37 -11.98 l-57.96 -5.42 l-14.75 3.9 c0 0 14.57 -14.33 33.16 -19.63 " style="fill:#002d4f;"/><path d="M215.59 527.81 c-2.87 6.45 -6.8 11.89 -11.81 16.33 c-5.01 4.44 -10.78 7.77 -17.29 9.99 c-6.52 2.22 -13.36 3.33 -20.52 3.33 c-8.31 0 -15.5 -1.22 -21.59 -3.65 c-6.09 -2.43 -12 -6.44 -17.72 -12.03 l19.77 -19.55 c2.86 2.86 5.73 5.01 8.59 6.44 c2.86 1.43 6.52 2.15 10.96 2.15 c7.44 0 13.32 -2.22 17.61 -6.66 c4.3 -4.44 6.45 -10.95 6.45 -19.55 l0 -101.4 l29.86 0 l0 102.69 c0 8.16 -1.43 15.47 -4.3 21.91 " style="fill:#000000;"/><path d="M336.54 545.1 c-10.6 8.24 -24.2 12.35 -40.82 12.35 c-12.03 0 -22.52 -1.54 -31.47 -4.62 c-8.95 -3.08 -17.08 -8.27 -24.38 -15.57 l19.34 -19.34 c4.58 4.58 9.99 7.88 16.22 9.88 c6.23 2.01 13.14 3.01 20.73 3.01 c18.05 0 27.07 -6.3 27.07 -18.91 c0 -5.3 -1.37 -9.41 -4.08 -12.35 c-2.72 -2.94 -7.45 -4.91 -14.18 -5.91 l-8.59 -1.29 l-9.88 -1.29 c-13.03 -1.86 -22.91 -6.09 -29.64 -12.67 c-7.3 -7.3 -10.96 -17.33 -10.96 -30.08 c0 -13.89 4.8 -25.1 14.39 -33.62 c9.59 -8.52 22.56 -12.78 38.88 -12.78 c10.74 0 20.05 1.39 27.93 4.19 c7.88 2.79 15.04 7.34 21.48 13.64 l-18.9 18.69 c-4.3 -4.15 -9.06 -6.95 -14.29 -8.38 c-5.23 -1.43 -10.92 -2.15 -17.08 -2.15 c-7.59 0 -13.43 1.83 -17.51 5.48 c-4.08 3.65 -6.12 8.27 -6.12 13.86 c0 4.01 1.57 7.63 4.73 10.85 c3.15 3.22 7.8 5.26 13.96 6.12 l9.24 1.29 l8.81 1.29 c6.87 1 12.64 2.44 17.29 4.3 c4.65 1.86 8.63 4.37 11.92 7.52 c7.88 7.45 11.82 18.26 11.82 32.44 c0 14.47 -5.3 25.82 -15.9 34.05 " style="fill:#000000;"/>
</svg>
